<svg xmlns="http://www.w3.org/2000/svg" version="1.1" xmlns:xlink="http://www.w3.org/1999/xlink" xmlns:svgjs="http://svgjs.dev/svgjs" width="100" height="100" viewBox="0 0 1500 939"><g transform="matrix(1,0,0,1,-0.9090909090909918,-1.5145161290322449)"><svg viewBox="0 0 396 248" data-background-color="#e56d90" preserveAspectRatio="xMidYMid meet" height="939" width="1500" xmlns="http://www.w3.org/2000/svg" xmlns:xlink="http://www.w3.org/1999/xlink"><g id="tight-bounds" transform="matrix(1,0,0,1,0.2400000000000091,0.4000000000000057)"><svg viewBox="0 0 395.52 247.2" height="247.2" width="395.52"><g><svg></svg></g><g><svg viewBox="0 0 395.52 247.2" height="247.2" width="395.52"><g transform="matrix(1,0,0,1,75.54432000000001,74.09815983157881)"><svg viewBox="0 0 244.43135999999996 99.00368033684236" height="99.00368033684236" width="244.43135999999996"><g><svg viewBox="0 0 446.3091863364146 180.77161627479637" height="99.00368033684236" width="244.43135999999996"><g><svg viewBox="0 0 244.43135999999998 180.77161627479637" height="180.77161627479637" width="244.43135999999998"><g id="textblocktransform"><svg viewBox="0 0 244.43135999999998 180.77161627479637" height="180.77161627479637" width="244.43135999999998" id="textblock"><g><svg viewBox="0 0 244.43135999999998 112.88683720333546" height="112.88683720333546" width="244.43135999999998"><g transform="matrix(1,0,0,1,0,0)"><svg width="244.43135999999998" viewBox="0.35 -35.25 77.95 36" height="112.88683720333546" data-palette-color="#ffffff"><path d="M11.75-35.25Q14.75-35.25 17.05-34.2 19.35-33.15 21.3-31.05L21.3-31.05 18.35-27.65Q16.8-29.05 15.33-29.75 13.85-30.45 12.2-30.45L12.2-30.45Q10.3-30.45 9.2-29.28 8.1-28.1 8.1-26.2L8.1-26.2Q8.1-24.3 9.25-23.1 10.4-21.9 13.75-20.6L13.75-20.6Q18.05-18.85 20.08-16.5 22.1-14.15 22.1-9.85L22.1-9.85Q22.1-6.9 20.75-4.48 19.4-2.05 16.88-0.65 14.35 0.75 11 0.75L11 0.75Q7.55 0.75 5-0.48 2.45-1.7 0.35-3.95L0.35-3.95 3.55-7.45Q5.35-5.85 7-5 8.65-4.15 10.6-4.15L10.6-4.15Q12.9-4.15 14.18-5.58 15.45-7 15.45-9.45L15.45-9.45Q15.45-11.6 14.33-12.98 13.2-14.35 10.15-15.5L10.15-15.5Q5.55-17.35 3.53-19.75 1.5-22.15 1.5-25.75L1.5-25.75Q1.5-28.5 2.83-30.65 4.15-32.8 6.5-34.02 8.85-35.25 11.75-35.25L11.75-35.25ZM43-6.4Q43-5.1 43.35-4.48 43.7-3.85 44.5-3.45L44.5-3.45 43.25 0.65Q41.2 0.4 39.97-0.45 38.75-1.3 38.15-3.05L38.15-3.05Q35.85 0.75 31.7 0.75L31.7 0.75Q28.4 0.75 26.45-1.48 24.5-3.7 24.5-7.4L24.5-7.4Q24.5-11.7 27.17-13.95 29.85-16.2 34.95-16.2L34.95-16.2 37-16.2 37-18.05Q37-20.55 36.12-21.58 35.25-22.6 33.3-22.6L33.3-22.6Q30.95-22.6 27.45-21.3L27.45-21.3 26.05-25.3Q28.05-26.2 30.2-26.68 32.35-27.15 34.3-27.15L34.3-27.15Q43-27.15 43-18.35L43-18.35 43-6.4ZM33.35-3.7Q35.75-3.7 37-7L37-7 37-12.55 35.55-12.55Q33-12.55 31.82-11.4 30.65-10.25 30.65-7.85L30.65-7.85Q30.65-5.8 31.35-4.75 32.05-3.7 33.35-3.7L33.35-3.7ZM72.45-27.15Q75.1-27.15 76.7-25.1 78.3-23.05 78.3-19.6L78.3-19.6 78.3 0 72.25 0 72.25-18.95Q72.25-20.85 71.75-21.68 71.25-22.5 70.3-22.5L70.3-22.5Q68.35-22.5 66.55-18.8L66.55-18.8 66.55 0 60.55 0 60.55-18.95Q60.55-22.5 58.65-22.5L58.65-22.5Q56.6-22.5 54.85-18.8L54.85-18.8 54.85 0 48.8 0 48.8-26.45 54.15-26.45 54.55-23.05Q57.15-27.15 60.8-27.15L60.8-27.15Q62.65-27.15 64-26 65.35-24.85 66.05-22.75L66.05-22.75Q68.7-27.15 72.45-27.15L72.45-27.15Z" opacity="1" transform="matrix(1,0,0,1,0,0)" fill="#ffffff" class="wordmark-text-0" data-fill-palette-color="primary" id="text-0"></path></svg></g></svg></g><g transform="matrix(1,0,0,1,0,139.5367101829501)"><svg viewBox="0 0 244.43135999999998 41.234906091846284" height="41.234906091846284" width="244.43135999999998"><g transform="matrix(1,0,0,1,0,0)"><svg width="244.43135999999998" viewBox="3 -35.25 213.4 36" height="41.234906091846284" data-palette-color="#ffffff"><path d="M3-34.55L9.35-34.55 9.35 0 3 0 3-34.55ZM26.35-5L28.5-1.2Q26.05 0.75 22.75 0.75L22.75 0.75Q19.3 0.75 17.5-1.23 15.7-3.2 15.7-6.6L15.7-6.6 15.7-22 12.6-22 12.6-26.45 15.7-26.45 15.7-32.3 21.85-33.05 21.85-26.45 26.85-26.45 26.25-22 21.85-22 21.85-6.6Q21.85-4.2 23.9-4.2L23.9-4.2Q24.55-4.2 25.05-4.38 25.55-4.55 26.35-5L26.35-5ZM35.3-21.05L31.25-21.05 30.55-34.55 36-34.55 35.3-21.05ZM48.55-27.15Q53.25-27.15 56.5-24.05L56.5-24.05 54.15-20.7Q52.75-21.7 51.5-22.2 50.25-22.7 48.95-22.7L48.95-22.7Q47.5-22.7 46.68-21.93 45.85-21.15 45.85-19.8L45.85-19.8Q45.85-18.45 46.78-17.63 47.7-16.8 50.5-15.7L50.5-15.7Q53.95-14.35 55.6-12.5 57.25-10.65 57.25-7.55L57.25-7.55Q57.25-3.7 54.55-1.48 51.85 0.75 47.7 0.75L47.7 0.75Q45 0.75 42.73-0.23 40.45-1.2 38.75-2.95L38.75-2.95 41.75-6.25Q44.55-3.8 47.45-3.8L47.45-3.8Q49.1-3.8 50.05-4.67 51-5.55 51-7.1L51-7.1Q51-8.25 50.6-8.97 50.2-9.7 49.2-10.33 48.2-10.95 46.2-11.7L46.2-11.7Q42.75-13.05 41.28-14.85 39.8-16.65 39.8-19.45L39.8-19.45Q39.8-22.8 42.18-24.98 44.55-27.15 48.55-27.15L48.55-27.15ZM79.85-35.25Q82.85-35.25 85.15-34.2 87.45-33.15 89.4-31.05L89.4-31.05 86.45-27.65Q84.9-29.05 83.43-29.75 81.95-30.45 80.3-30.45L80.3-30.45Q78.4-30.45 77.3-29.28 76.2-28.1 76.2-26.2L76.2-26.2Q76.2-24.3 77.35-23.1 78.5-21.9 81.85-20.6L81.85-20.6Q86.15-18.85 88.18-16.5 90.2-14.15 90.2-9.85L90.2-9.85Q90.2-6.9 88.85-4.48 87.5-2.05 84.98-0.65 82.45 0.75 79.1 0.75L79.1 0.75Q75.65 0.75 73.1-0.48 70.55-1.7 68.45-3.95L68.45-3.95 71.65-7.45Q73.45-5.85 75.1-5 76.75-4.15 78.7-4.15L78.7-4.15Q81-4.15 82.28-5.58 83.55-7 83.55-9.45L83.55-9.45Q83.55-11.6 82.43-12.98 81.3-14.35 78.25-15.5L78.25-15.5Q73.65-17.35 71.63-19.75 69.6-22.15 69.6-25.75L69.6-25.75Q69.6-28.5 70.93-30.65 72.25-32.8 74.6-34.02 76.95-35.25 79.85-35.25L79.85-35.25ZM111.1-6.4Q111.1-5.1 111.45-4.48 111.8-3.85 112.6-3.45L112.6-3.45 111.35 0.65Q109.3 0.4 108.08-0.45 106.85-1.3 106.25-3.05L106.25-3.05Q103.95 0.75 99.8 0.75L99.8 0.75Q96.5 0.75 94.55-1.48 92.6-3.7 92.6-7.4L92.6-7.4Q92.6-11.7 95.28-13.95 97.95-16.2 103.05-16.2L103.05-16.2 105.1-16.2 105.1-18.05Q105.1-20.55 104.23-21.58 103.35-22.6 101.4-22.6L101.4-22.6Q99.05-22.6 95.55-21.3L95.55-21.3 94.15-25.3Q96.15-26.2 98.3-26.68 100.45-27.15 102.4-27.15L102.4-27.15Q111.1-27.15 111.1-18.35L111.1-18.35 111.1-6.4ZM101.45-3.7Q103.85-3.7 105.1-7L105.1-7 105.1-12.55 103.65-12.55Q101.1-12.55 99.93-11.4 98.75-10.25 98.75-7.85L98.75-7.85Q98.75-5.8 99.45-4.75 100.15-3.7 101.45-3.7L101.45-3.7ZM140.55-27.15Q143.2-27.15 144.8-25.1 146.4-23.05 146.4-19.6L146.4-19.6 146.4 0 140.35 0 140.35-18.95Q140.35-20.85 139.85-21.68 139.35-22.5 138.4-22.5L138.4-22.5Q136.45-22.5 134.65-18.8L134.65-18.8 134.65 0 128.65 0 128.65-18.95Q128.65-22.5 126.75-22.5L126.75-22.5Q124.7-22.5 122.95-18.8L122.95-18.8 122.95 0 116.9 0 116.9-26.45 122.25-26.45 122.65-23.05Q125.25-27.15 128.9-27.15L128.9-27.15Q130.75-27.15 132.1-26 133.45-24.85 134.15-22.75L134.15-22.75Q136.8-27.15 140.55-27.15L140.55-27.15ZM175.55-27.15Q178.2-27.15 179.8-25.1 181.4-23.05 181.4-19.6L181.4-19.6 181.4 0 175.35 0 175.35-18.95Q175.35-20.85 174.85-21.68 174.35-22.5 173.4-22.5L173.4-22.5Q171.45-22.5 169.65-18.8L169.65-18.8 169.65 0 163.65 0 163.65-18.95Q163.65-22.5 161.75-22.5L161.75-22.5Q159.7-22.5 157.95-18.8L157.95-18.8 157.95 0 151.9 0 151.9-26.45 157.25-26.45 157.65-23.05Q160.25-27.15 163.9-27.15L163.9-27.15Q165.75-27.15 167.1-26 168.45-24.85 169.15-22.75L169.15-22.75Q171.8-27.15 175.55-27.15L175.55-27.15ZM210.55-27.15Q213.2-27.15 214.8-25.1 216.4-23.05 216.4-19.6L216.4-19.6 216.4 0 210.35 0 210.35-18.95Q210.35-20.85 209.85-21.68 209.35-22.5 208.4-22.5L208.4-22.5Q206.45-22.5 204.65-18.8L204.65-18.8 204.65 0 198.65 0 198.65-18.95Q198.65-22.5 196.75-22.5L196.75-22.5Q194.7-22.5 192.95-18.8L192.95-18.8 192.95 0 186.9 0 186.9-26.45 192.25-26.45 192.65-23.05Q195.25-27.15 198.9-27.15L198.9-27.15Q200.75-27.15 202.1-26 203.45-24.85 204.15-22.75L204.15-22.75Q206.8-27.15 210.55-27.15L210.55-27.15Z" opacity="1" transform="matrix(1,0,0,1,0,0)" fill="#ffffff" class="slogan-text-1" data-fill-palette-color="secondary" id="text-1"></path></svg></g></svg></g></svg></g></svg></g><g transform="matrix(1,0,0,1,271.0812329796146,46.92263662566938)"><svg viewBox="0 0 175.2279533568 86.92634302345762" height="86.92634302345762" width="175.2279533568"><g><svg xmlns="http://www.w3.org/2000/svg" xmlns:xlink="http://www.w3.org/1999/xlink" version="1.1" x="0" y="0" viewBox="183 -40.29999941143039 369.5 183.2999994114304" enable-background="new 159 -158 417 417" xml:space="preserve" height="86.92634302345762" width="175.2279533568" class="icon-icon-0" data-fill-palette-color="accent" id="icon-0"><circle cx="367.5" cy="-25.1" r="15" fill="#ffffff" data-fill-palette-color="accent"></circle><path d="M381.8 14.1L400.9 61.4 415.1 55.7 392.2-1.1C391-4 388.2-5.9 385.1-5.9H350C346.9-5.9 344.1-4 342.9-1.1L320 55.7 334.2 61.4 353.3 14.1 355.7 15.1 329.8 84H350.4L361.5 143H373.2L384.3 84H404.9L379.2 15.1z" fill="#ffffff" data-fill-palette-color="accent"></path><polygon points="552.5,37.1 446.5,-10.1 446.5,16.7 522,50 446.5,83.8 446.5,110.6 552.5,63.9 " fill="#ffffff" data-fill-palette-color="accent"></polygon><polygon points="183,63.9 289,110.6 289,83.8 213.5,50 289,16.7 289,-10.1 183,37.1 " fill="#ffffff" data-fill-palette-color="accent"></polygon></svg></g></svg></g></svg></g></svg></g><g><path d="M245.816 0c68.262 0 123.6 55.338 123.6 123.6 0 68.262-55.338 123.6-123.6 123.6-47.784 0-89.235-27.116-109.805-66.8h3.15c20.328 38.09 60.464 64.013 106.655 64.012 66.723 0 120.812-54.09 120.812-120.812 0-66.723-54.09-120.812-120.812-120.812-46.191 0-86.327 25.922-106.655 64.012l-3.15 0c20.569-39.684 62.021-66.8 109.805-66.8z" fill="#ffffff" stroke="transparent" data-fill-palette-color="tertiary"></path></g></svg></g><defs></defs></svg><rect width="395.52" height="247.2" fill="none" stroke="none" visibility="hidden"></rect></g></svg></g></svg>